# xmcd CD database file
#
# Track frame offsets:
#	150
#	32775
#	57357
#	104235
#	107400
#	178322
#	235305
#	275282
#	314790
#
# Disc length: 4283 seconds
#
# Revision: 0
# Processed by: cddbd v1.5.2PL0 Copyright (c) Steve Scherf et al.
# Submitted via: CDex 1.70beta2
#
DISCID=8610b909
DTITLE=Rob Reddy - Post-War Euphoria
DYEAR=1996
DGENRE=Jazz
TTITLE0=The Pipe Smoker
TTITLE1=Post-War Euphoria
TTITLE2=Same Old
TTITLE3=Blind Spot
TTITLE4=The Tall People
TTITLE5=Up-South
TTITLE6=Thanks
TTITLE7=And Then The Germans Arrived
TTITLE8=Cassidy's Spot On The Wall
EXTD=YEAR: 1996
EXTT0=
EXTT1=
EXTT2=
EXTT3=
EXTT4=
EXTT5=
EXTT6=
EXTT7=
EXTT8=
PLAYORDER=
